<mxfile host="app.diagrams.net" modified="2021-03-07T20:02:29.918Z" agent="5.0 (Windows NT 10.0; Win64; x64) AppleWebKit/537.36 (KHTML, like Gecko) Chrome/89.0.4389.82 Safari/537.36" etag="PmBTwiAA1BuFugQDxoOx" version="14.4.4" type="github">
  <diagram id="R2lEEEUBdFMjLlhIrx00" name="Page-1">
    <mxGraphModel dx="2431" dy="1089" grid="0" gridSize="10" guides="1" tooltips="1" connect="1" arrows="1" fold="1" page="0" pageScale="1" pageWidth="850" pageHeight="1100" math="0" shadow="0" extFonts="Permanent Marker^https://fonts.googleapis.com/css?family=Permanent+Marker">
      <root>
        <mxCell id="0" />
        <mxCell id="1" parent="0" />
        <mxCell id="pU5CVLxnvkpslBLuYrHG-5" value="Game" style="rounded=1;whiteSpace=wrap;html=1;" parent="1" vertex="1">
          <mxGeometry x="365" y="316" width="120" height="60" as="geometry" />
        </mxCell>
        <mxCell id="pU5CVLxnvkpslBLuYrHG-6" value="session_length" style="ellipse;whiteSpace=wrap;html=1;" parent="1" vertex="1">
          <mxGeometry x="266" y="215" width="99" height="47" as="geometry" />
        </mxCell>
        <mxCell id="pU5CVLxnvkpslBLuYrHG-7" value="" style="endArrow=classic;html=1;exitX=0.5;exitY=1;exitDx=0;exitDy=0;entryX=0.5;entryY=0;entryDx=0;entryDy=0;" parent="1" source="pU5CVLxnvkpslBLuYrHG-6" target="pU5CVLxnvkpslBLuYrHG-5" edge="1">
          <mxGeometry width="50" height="50" relative="1" as="geometry">
            <mxPoint x="399" y="364" as="sourcePoint" />
            <mxPoint x="449" y="314" as="targetPoint" />
          </mxGeometry>
        </mxCell>
        <mxCell id="pU5CVLxnvkpslBLuYrHG-9" value="distributor_present" style="ellipse;whiteSpace=wrap;html=1;" parent="1" vertex="1">
          <mxGeometry x="479" y="215" width="112" height="47" as="geometry" />
        </mxCell>
        <mxCell id="pU5CVLxnvkpslBLuYrHG-10" value="" style="endArrow=classic;html=1;exitX=0.5;exitY=1;exitDx=0;exitDy=0;entryX=0.5;entryY=0;entryDx=0;entryDy=0;" parent="1" source="pU5CVLxnvkpslBLuYrHG-9" target="pU5CVLxnvkpslBLuYrHG-5" edge="1">
          <mxGeometry width="50" height="50" relative="1" as="geometry">
            <mxPoint x="502" y="399" as="sourcePoint" />
            <mxPoint x="528" y="351" as="targetPoint" />
          </mxGeometry>
        </mxCell>
        <mxCell id="pU5CVLxnvkpslBLuYrHG-11" value="wholesaler_present" style="ellipse;whiteSpace=wrap;html=1;" parent="1" vertex="1">
          <mxGeometry x="368" y="190" width="114" height="47" as="geometry" />
        </mxCell>
        <mxCell id="pU5CVLxnvkpslBLuYrHG-12" value="" style="endArrow=classic;html=1;exitX=0.5;exitY=1;exitDx=0;exitDy=0;entryX=0.5;entryY=0;entryDx=0;entryDy=0;" parent="1" source="pU5CVLxnvkpslBLuYrHG-11" target="pU5CVLxnvkpslBLuYrHG-5" edge="1">
          <mxGeometry width="50" height="50" relative="1" as="geometry">
            <mxPoint x="419" y="384" as="sourcePoint" />
            <mxPoint x="445" y="336" as="targetPoint" />
          </mxGeometry>
        </mxCell>
        <mxCell id="pU5CVLxnvkpslBLuYrHG-13" value="holding_cost" style="ellipse;whiteSpace=wrap;html=1;" parent="1" vertex="1">
          <mxGeometry x="561" y="270" width="99" height="47" as="geometry" />
        </mxCell>
        <mxCell id="pU5CVLxnvkpslBLuYrHG-14" value="" style="endArrow=classic;html=1;exitX=0;exitY=1;exitDx=0;exitDy=0;entryX=1;entryY=0.5;entryDx=0;entryDy=0;" parent="1" source="pU5CVLxnvkpslBLuYrHG-13" target="pU5CVLxnvkpslBLuYrHG-5" edge="1">
          <mxGeometry width="50" height="50" relative="1" as="geometry">
            <mxPoint x="596" y="476" as="sourcePoint" />
            <mxPoint x="622" y="428" as="targetPoint" />
          </mxGeometry>
        </mxCell>
        <mxCell id="pU5CVLxnvkpslBLuYrHG-15" value="backlog_cost" style="ellipse;whiteSpace=wrap;html=1;" parent="1" vertex="1">
          <mxGeometry x="561" y="326" width="99" height="47" as="geometry" />
        </mxCell>
        <mxCell id="pU5CVLxnvkpslBLuYrHG-16" value="" style="endArrow=classic;html=1;exitX=0;exitY=0.5;exitDx=0;exitDy=0;entryX=1;entryY=0.5;entryDx=0;entryDy=0;" parent="1" source="pU5CVLxnvkpslBLuYrHG-15" target="pU5CVLxnvkpslBLuYrHG-5" edge="1">
          <mxGeometry width="50" height="50" relative="1" as="geometry">
            <mxPoint x="562" y="516" as="sourcePoint" />
            <mxPoint x="588" y="468" as="targetPoint" />
          </mxGeometry>
        </mxCell>
        <mxCell id="pU5CVLxnvkpslBLuYrHG-17" value="&lt;u&gt;session_id&lt;/u&gt;" style="ellipse;whiteSpace=wrap;html=1;" parent="1" vertex="1">
          <mxGeometry x="184" y="326" width="99" height="47" as="geometry" />
        </mxCell>
        <mxCell id="pU5CVLxnvkpslBLuYrHG-18" value="" style="endArrow=classic;html=1;exitX=1;exitY=0.5;exitDx=0;exitDy=0;entryX=0;entryY=0.5;entryDx=0;entryDy=0;" parent="1" source="pU5CVLxnvkpslBLuYrHG-17" target="pU5CVLxnvkpslBLuYrHG-5" edge="1">
          <mxGeometry width="50" height="50" relative="1" as="geometry">
            <mxPoint x="167" y="516" as="sourcePoint" />
            <mxPoint x="108" y="290" as="targetPoint" />
          </mxGeometry>
        </mxCell>
        <mxCell id="pU5CVLxnvkpslBLuYrHG-23" value="active" style="ellipse;whiteSpace=wrap;html=1;" parent="1" vertex="1">
          <mxGeometry x="181" y="270" width="99" height="47" as="geometry" />
        </mxCell>
        <mxCell id="pU5CVLxnvkpslBLuYrHG-25" value="" style="endArrow=classic;html=1;exitX=1;exitY=1;exitDx=0;exitDy=0;entryX=0;entryY=0.5;entryDx=0;entryDy=0;" parent="1" source="pU5CVLxnvkpslBLuYrHG-23" target="pU5CVLxnvkpslBLuYrHG-5" edge="1">
          <mxGeometry width="50" height="50" relative="1" as="geometry">
            <mxPoint x="292.6999185781383" y="336.02241076116695" as="sourcePoint" />
            <mxPoint x="384" y="441" as="targetPoint" />
          </mxGeometry>
        </mxCell>
        <mxCell id="pU5CVLxnvkpslBLuYrHG-26" value="info_sharing" style="ellipse;whiteSpace=wrap;html=1;" parent="1" vertex="1">
          <mxGeometry x="266" y="436" width="99" height="47" as="geometry" />
        </mxCell>
        <mxCell id="pU5CVLxnvkpslBLuYrHG-27" value="demand_id" style="ellipse;whiteSpace=wrap;html=1;" parent="1" vertex="1">
          <mxGeometry x="489" y="434" width="102" height="49" as="geometry" />
        </mxCell>
        <mxCell id="pU5CVLxnvkpslBLuYrHG-28" value="info_delay" style="ellipse;whiteSpace=wrap;html=1;" parent="1" vertex="1">
          <mxGeometry x="373" y="452" width="104" height="46" as="geometry" />
        </mxCell>
        <mxCell id="pU5CVLxnvkpslBLuYrHG-29" value="" style="endArrow=classic;html=1;exitX=0.5;exitY=0;exitDx=0;exitDy=0;entryX=0.5;entryY=1;entryDx=0;entryDy=0;" parent="1" source="pU5CVLxnvkpslBLuYrHG-26" target="pU5CVLxnvkpslBLuYrHG-5" edge="1">
          <mxGeometry width="50" height="50" relative="1" as="geometry">
            <mxPoint x="399" y="364" as="sourcePoint" />
            <mxPoint x="449" y="314" as="targetPoint" />
          </mxGeometry>
        </mxCell>
        <mxCell id="pU5CVLxnvkpslBLuYrHG-30" value="" style="endArrow=classic;html=1;exitX=0.5;exitY=0;exitDx=0;exitDy=0;entryX=0.5;entryY=1;entryDx=0;entryDy=0;" parent="1" source="pU5CVLxnvkpslBLuYrHG-28" target="pU5CVLxnvkpslBLuYrHG-5" edge="1">
          <mxGeometry width="50" height="50" relative="1" as="geometry">
            <mxPoint x="399" y="364" as="sourcePoint" />
            <mxPoint x="449" y="314" as="targetPoint" />
          </mxGeometry>
        </mxCell>
        <mxCell id="pU5CVLxnvkpslBLuYrHG-31" value="" style="endArrow=classic;html=1;exitX=0.5;exitY=0;exitDx=0;exitDy=0;entryX=0.5;entryY=1;entryDx=0;entryDy=0;" parent="1" source="pU5CVLxnvkpslBLuYrHG-27" target="pU5CVLxnvkpslBLuYrHG-5" edge="1">
          <mxGeometry width="50" height="50" relative="1" as="geometry">
            <mxPoint x="399" y="364" as="sourcePoint" />
            <mxPoint x="449" y="314" as="targetPoint" />
          </mxGeometry>
        </mxCell>
        <mxCell id="pU5CVLxnvkpslBLuYrHG-32" value="rounds_completed" style="ellipse;whiteSpace=wrap;html=1;" parent="1" vertex="1">
          <mxGeometry x="155" y="203" width="105" height="49" as="geometry" />
        </mxCell>
        <mxCell id="pU5CVLxnvkpslBLuYrHG-33" value="" style="endArrow=classic;html=1;exitX=1;exitY=1;exitDx=0;exitDy=0;entryX=0;entryY=0;entryDx=0;entryDy=0;" parent="1" source="pU5CVLxnvkpslBLuYrHG-32" target="pU5CVLxnvkpslBLuYrHG-5" edge="1">
          <mxGeometry width="50" height="50" relative="1" as="geometry">
            <mxPoint x="182" y="445.5" as="sourcePoint" />
            <mxPoint x="342" y="284.5" as="targetPoint" />
          </mxGeometry>
        </mxCell>
        <mxCell id="pU5CVLxnvkpslBLuYrHG-34" value="is_default_game" style="ellipse;whiteSpace=wrap;html=1;" parent="1" vertex="1">
          <mxGeometry x="596" y="205" width="99" height="47" as="geometry" />
        </mxCell>
        <mxCell id="pU5CVLxnvkpslBLuYrHG-35" value="" style="endArrow=classic;html=1;exitX=0;exitY=1;exitDx=0;exitDy=0;entryX=1;entryY=0;entryDx=0;entryDy=0;" parent="1" source="pU5CVLxnvkpslBLuYrHG-34" target="pU5CVLxnvkpslBLuYrHG-5" edge="1">
          <mxGeometry width="50" height="50" relative="1" as="geometry">
            <mxPoint x="637" y="424" as="sourcePoint" />
            <mxPoint x="526" y="294" as="targetPoint" />
          </mxGeometry>
        </mxCell>
        <mxCell id="pU5CVLxnvkpslBLuYrHG-36" value="starting_inventory" style="ellipse;whiteSpace=wrap;html=1;" parent="1" vertex="1">
          <mxGeometry x="482" y="161" width="99" height="47" as="geometry" />
        </mxCell>
        <mxCell id="pU5CVLxnvkpslBLuYrHG-37" value="" style="endArrow=classic;html=1;exitX=0;exitY=1;exitDx=0;exitDy=0;entryX=0.5;entryY=0;entryDx=0;entryDy=0;" parent="1" source="pU5CVLxnvkpslBLuYrHG-36" target="pU5CVLxnvkpslBLuYrHG-5" edge="1">
          <mxGeometry width="50" height="50" relative="1" as="geometry">
            <mxPoint x="521" y="367.5" as="sourcePoint" />
            <mxPoint x="421" y="313.5" as="targetPoint" />
          </mxGeometry>
        </mxCell>
        <mxCell id="pU5CVLxnvkpslBLuYrHG-38" value="player_weeks" style="ellipse;whiteSpace=wrap;html=1;" parent="1" vertex="1">
          <mxGeometry x="263" y="161" width="99" height="47" as="geometry" />
        </mxCell>
        <mxCell id="pU5CVLxnvkpslBLuYrHG-39" value="" style="endArrow=classic;html=1;exitX=1;exitY=1;exitDx=0;exitDy=0;entryX=0.5;entryY=0;entryDx=0;entryDy=0;" parent="1" source="pU5CVLxnvkpslBLuYrHG-38" target="pU5CVLxnvkpslBLuYrHG-5" edge="1">
          <mxGeometry width="50" height="50" relative="1" as="geometry">
            <mxPoint x="289" y="320" as="sourcePoint" />
            <mxPoint x="178" y="190" as="targetPoint" />
          </mxGeometry>
        </mxCell>
        <mxCell id="pU5CVLxnvkpslBLuYrHG-40" value="Player" style="rounded=1;whiteSpace=wrap;html=1;" parent="1" vertex="1">
          <mxGeometry x="-121" y="557" width="120" height="60" as="geometry" />
        </mxCell>
        <mxCell id="pU5CVLxnvkpslBLuYrHG-43" value="role" style="ellipse;whiteSpace=wrap;html=1;" parent="1" vertex="1">
          <mxGeometry x="-112" y="454" width="102" height="44" as="geometry" />
        </mxCell>
        <mxCell id="pU5CVLxnvkpslBLuYrHG-44" value="" style="endArrow=classic;html=1;exitX=0.5;exitY=1;exitDx=0;exitDy=0;entryX=0.5;entryY=0;entryDx=0;entryDy=0;" parent="1" source="pU5CVLxnvkpslBLuYrHG-43" target="pU5CVLxnvkpslBLuYrHG-40" edge="1">
          <mxGeometry width="50" height="50" relative="1" as="geometry">
            <mxPoint x="16" y="640" as="sourcePoint" />
            <mxPoint x="42" y="592" as="targetPoint" />
          </mxGeometry>
        </mxCell>
        <mxCell id="pU5CVLxnvkpslBLuYrHG-51" value="&lt;u&gt;id&lt;/u&gt;" style="ellipse;whiteSpace=wrap;html=1;" parent="1" vertex="1">
          <mxGeometry x="19" y="766" width="99" height="47" as="geometry" />
        </mxCell>
        <mxCell id="pU5CVLxnvkpslBLuYrHG-52" value="" style="endArrow=classic;html=1;exitX=1;exitY=0.5;exitDx=0;exitDy=0;entryX=0;entryY=0.5;entryDx=0;entryDy=0;" parent="1" source="pU5CVLxnvkpslBLuYrHG-51" target="Yg7qXJUgdfBUijy8s-41-1" edge="1">
          <mxGeometry width="50" height="50" relative="1" as="geometry">
            <mxPoint x="-55" y="992" as="sourcePoint" />
            <mxPoint x="-114" y="764" as="targetPoint" />
          </mxGeometry>
        </mxCell>
        <mxCell id="pU5CVLxnvkpslBLuYrHG-53" value="current_game" style="ellipse;whiteSpace=wrap;html=1;" parent="1" vertex="1">
          <mxGeometry x="-308" y="507.5" width="99" height="47" as="geometry" />
        </mxCell>
        <mxCell id="pU5CVLxnvkpslBLuYrHG-54" value="" style="endArrow=classic;html=1;exitX=1;exitY=1;exitDx=0;exitDy=0;entryX=0;entryY=0.5;entryDx=0;entryDy=0;" parent="1" source="pU5CVLxnvkpslBLuYrHG-53" target="pU5CVLxnvkpslBLuYrHG-40" edge="1">
          <mxGeometry width="50" height="50" relative="1" as="geometry">
            <mxPoint x="-281" y="748" as="sourcePoint" />
            <mxPoint x="-255" y="700" as="targetPoint" />
          </mxGeometry>
        </mxCell>
        <mxCell id="pU5CVLxnvkpslBLuYrHG-56" value="allowed_games" style="ellipse;whiteSpace=wrap;html=1;" parent="1" vertex="1">
          <mxGeometry x="-303" y="619.5" width="99" height="47" as="geometry" />
        </mxCell>
        <mxCell id="pU5CVLxnvkpslBLuYrHG-58" value="" style="endArrow=classic;html=1;exitX=1;exitY=0;exitDx=0;exitDy=0;entryX=0;entryY=0.5;entryDx=0;entryDy=0;" parent="1" source="pU5CVLxnvkpslBLuYrHG-56" target="pU5CVLxnvkpslBLuYrHG-40" edge="1">
          <mxGeometry width="50" height="50" relative="1" as="geometry">
            <mxPoint x="-193.3000814218617" y="577.022410761167" as="sourcePoint" />
            <mxPoint x="-102" y="682" as="targetPoint" />
          </mxGeometry>
        </mxCell>
        <mxCell id="pU5CVLxnvkpslBLuYrHG-59" value="password" style="ellipse;whiteSpace=wrap;html=1;" parent="1" vertex="1">
          <mxGeometry x="162" y="907" width="99" height="47" as="geometry" />
        </mxCell>
        <mxCell id="pU5CVLxnvkpslBLuYrHG-60" value="name" style="ellipse;whiteSpace=wrap;html=1;" parent="1" vertex="1">
          <mxGeometry x="302" y="906" width="102" height="49" as="geometry" />
        </mxCell>
        <mxCell id="pU5CVLxnvkpslBLuYrHG-61" value="email" style="ellipse;whiteSpace=wrap;html=1;" parent="1" vertex="1">
          <mxGeometry x="50" y="854.5" width="104" height="46" as="geometry" />
        </mxCell>
        <mxCell id="pU5CVLxnvkpslBLuYrHG-62" value="" style="endArrow=classic;html=1;exitX=0.5;exitY=0;exitDx=0;exitDy=0;entryX=0.5;entryY=1;entryDx=0;entryDy=0;" parent="1" source="pU5CVLxnvkpslBLuYrHG-59" target="Yg7qXJUgdfBUijy8s-41-1" edge="1">
          <mxGeometry width="50" height="50" relative="1" as="geometry">
            <mxPoint x="252" y="836" as="sourcePoint" />
            <mxPoint x="278" y="847.9999999999998" as="targetPoint" />
          </mxGeometry>
        </mxCell>
        <mxCell id="pU5CVLxnvkpslBLuYrHG-63" value="" style="endArrow=classic;html=1;exitX=1;exitY=0;exitDx=0;exitDy=0;entryX=0;entryY=0.5;entryDx=0;entryDy=0;" parent="1" source="pU5CVLxnvkpslBLuYrHG-61" target="Yg7qXJUgdfBUijy8s-41-1" edge="1">
          <mxGeometry width="50" height="50" relative="1" as="geometry">
            <mxPoint x="-51" y="795" as="sourcePoint" />
            <mxPoint x="-25" y="805" as="targetPoint" />
          </mxGeometry>
        </mxCell>
        <mxCell id="pU5CVLxnvkpslBLuYrHG-64" value="" style="endArrow=classic;html=1;exitX=0.5;exitY=0;exitDx=0;exitDy=0;entryX=0.5;entryY=1;entryDx=0;entryDy=0;" parent="1" source="pU5CVLxnvkpslBLuYrHG-60" target="Yg7qXJUgdfBUijy8s-41-1" edge="1">
          <mxGeometry width="50" height="50" relative="1" as="geometry">
            <mxPoint x="252" y="836" as="sourcePoint" />
            <mxPoint x="278" y="847.9999999999998" as="targetPoint" />
          </mxGeometry>
        </mxCell>
        <mxCell id="pU5CVLxnvkpslBLuYrHG-73" value="Instructor" style="rounded=1;whiteSpace=wrap;html=1;" parent="1" vertex="1">
          <mxGeometry x="879" y="554" width="120" height="60" as="geometry" />
        </mxCell>
        <mxCell id="pU5CVLxnvkpslBLuYrHG-74" value="my_default_game" style="ellipse;whiteSpace=wrap;html=1;" parent="1" vertex="1">
          <mxGeometry x="889.5" y="436" width="99" height="47" as="geometry" />
        </mxCell>
        <mxCell id="pU5CVLxnvkpslBLuYrHG-75" value="" style="endArrow=classic;html=1;exitX=0.5;exitY=1;exitDx=0;exitDy=0;entryX=0.5;entryY=0;entryDx=0;entryDy=0;" parent="1" source="pU5CVLxnvkpslBLuYrHG-74" target="pU5CVLxnvkpslBLuYrHG-73" edge="1">
          <mxGeometry width="50" height="50" relative="1" as="geometry">
            <mxPoint x="913" y="602" as="sourcePoint" />
            <mxPoint x="963" y="552" as="targetPoint" />
          </mxGeometry>
        </mxCell>
        <mxCell id="pU5CVLxnvkpslBLuYrHG-78" value="backorder" style="ellipse;whiteSpace=wrap;html=1;" parent="1" vertex="1">
          <mxGeometry x="1062" y="561.5" width="101" height="45" as="geometry" />
        </mxCell>
        <mxCell id="pU5CVLxnvkpslBLuYrHG-79" value="" style="endArrow=classic;html=1;exitX=0;exitY=0.5;exitDx=0;exitDy=0;entryX=1;entryY=0.5;entryDx=0;entryDy=0;" parent="1" source="pU5CVLxnvkpslBLuYrHG-78" target="pU5CVLxnvkpslBLuYrHG-73" edge="1">
          <mxGeometry width="50" height="50" relative="1" as="geometry">
            <mxPoint x="933" y="622" as="sourcePoint" />
            <mxPoint x="959" y="574" as="targetPoint" />
          </mxGeometry>
        </mxCell>
        <mxCell id="pU5CVLxnvkpslBLuYrHG-120" value="Demand Pattern" style="rounded=1;whiteSpace=wrap;html=1;" parent="1" vertex="1">
          <mxGeometry x="837" y="785" width="120" height="60" as="geometry" />
        </mxCell>
        <mxCell id="pU5CVLxnvkpslBLuYrHG-127" value="weeks" style="ellipse;whiteSpace=wrap;html=1;" parent="1" vertex="1">
          <mxGeometry x="1052" y="778.5" width="99" height="47" as="geometry" />
        </mxCell>
        <mxCell id="pU5CVLxnvkpslBLuYrHG-128" value="" style="endArrow=classic;html=1;exitX=0;exitY=0.5;exitDx=0;exitDy=0;entryX=1;entryY=0.5;entryDx=0;entryDy=0;" parent="1" source="pU5CVLxnvkpslBLuYrHG-127" target="pU5CVLxnvkpslBLuYrHG-120" edge="1">
          <mxGeometry width="50" height="50" relative="1" as="geometry">
            <mxPoint x="1070" y="954.5" as="sourcePoint" />
            <mxPoint x="1096" y="906.5" as="targetPoint" />
          </mxGeometry>
        </mxCell>
        <mxCell id="pU5CVLxnvkpslBLuYrHG-129" value="&lt;u&gt;id&lt;/u&gt;" style="ellipse;whiteSpace=wrap;html=1;" parent="1" vertex="1">
          <mxGeometry x="1035" y="860.5" width="99" height="47" as="geometry" />
        </mxCell>
        <mxCell id="pU5CVLxnvkpslBLuYrHG-130" value="" style="endArrow=classic;html=1;exitX=0;exitY=0;exitDx=0;exitDy=0;entryX=1;entryY=0.5;entryDx=0;entryDy=0;" parent="1" source="pU5CVLxnvkpslBLuYrHG-129" target="pU5CVLxnvkpslBLuYrHG-120" edge="1">
          <mxGeometry width="50" height="50" relative="1" as="geometry">
            <mxPoint x="1018" y="1050.5" as="sourcePoint" />
            <mxPoint x="1044" y="1002.5" as="targetPoint" />
          </mxGeometry>
        </mxCell>
        <mxCell id="pU5CVLxnvkpslBLuYrHG-138" value="name" style="ellipse;whiteSpace=wrap;html=1;" parent="1" vertex="1">
          <mxGeometry x="913" y="904" width="102" height="49" as="geometry" />
        </mxCell>
        <mxCell id="pU5CVLxnvkpslBLuYrHG-142" value="" style="endArrow=classic;html=1;exitX=0.5;exitY=0;exitDx=0;exitDy=0;entryX=0.5;entryY=1;entryDx=0;entryDy=0;" parent="1" source="pU5CVLxnvkpslBLuYrHG-138" target="pU5CVLxnvkpslBLuYrHG-120" edge="1">
          <mxGeometry width="50" height="50" relative="1" as="geometry">
            <mxPoint x="873" y="842.5" as="sourcePoint" />
            <mxPoint x="923" y="792.5" as="targetPoint" />
          </mxGeometry>
        </mxCell>
        <mxCell id="pU5CVLxnvkpslBLuYrHG-143" value="Plays_In" style="rhombus;whiteSpace=wrap;html=1;" parent="1" vertex="1">
          <mxGeometry x="130" y="413" width="80" height="80" as="geometry" />
        </mxCell>
        <mxCell id="pU5CVLxnvkpslBLuYrHG-144" value="" style="endArrow=none;html=1;exitX=1;exitY=0;exitDx=0;exitDy=0;entryX=0;entryY=1;entryDx=0;entryDy=0;" parent="1" source="pU5CVLxnvkpslBLuYrHG-40" target="pU5CVLxnvkpslBLuYrHG-143" edge="1">
          <mxGeometry width="50" height="50" relative="1" as="geometry">
            <mxPoint x="255" y="491" as="sourcePoint" />
            <mxPoint x="305" y="441" as="targetPoint" />
          </mxGeometry>
        </mxCell>
        <mxCell id="pU5CVLxnvkpslBLuYrHG-146" value="2:4" style="edgeLabel;html=1;align=center;verticalAlign=middle;resizable=0;points=[];" parent="pU5CVLxnvkpslBLuYrHG-144" vertex="1" connectable="0">
          <mxGeometry x="-0.8047" y="-1" relative="1" as="geometry">
            <mxPoint as="offset" />
          </mxGeometry>
        </mxCell>
        <mxCell id="pU5CVLxnvkpslBLuYrHG-145" value="" style="endArrow=none;html=1;exitX=1;exitY=0;exitDx=0;exitDy=0;entryX=0;entryY=1;entryDx=0;entryDy=0;" parent="1" source="pU5CVLxnvkpslBLuYrHG-143" target="pU5CVLxnvkpslBLuYrHG-5" edge="1">
          <mxGeometry width="50" height="50" relative="1" as="geometry">
            <mxPoint x="9" y="567" as="sourcePoint" />
            <mxPoint x="168" y="480" as="targetPoint" />
          </mxGeometry>
        </mxCell>
        <mxCell id="pU5CVLxnvkpslBLuYrHG-148" value="0:n" style="edgeLabel;html=1;align=center;verticalAlign=middle;resizable=0;points=[];" parent="pU5CVLxnvkpslBLuYrHG-145" vertex="1" connectable="0">
          <mxGeometry x="0.7383" y="1" relative="1" as="geometry">
            <mxPoint as="offset" />
          </mxGeometry>
        </mxCell>
        <mxCell id="pU5CVLxnvkpslBLuYrHG-149" value="Monitors" style="rhombus;whiteSpace=wrap;html=1;" parent="1" vertex="1">
          <mxGeometry x="652" y="413" width="80" height="80" as="geometry" />
        </mxCell>
        <mxCell id="pU5CVLxnvkpslBLuYrHG-150" value="" style="endArrow=none;html=1;entryX=0;entryY=0;entryDx=0;entryDy=0;exitX=1;exitY=1;exitDx=0;exitDy=0;" parent="1" source="pU5CVLxnvkpslBLuYrHG-149" target="pU5CVLxnvkpslBLuYrHG-73" edge="1">
          <mxGeometry width="50" height="50" relative="1" as="geometry">
            <mxPoint x="739" y="455" as="sourcePoint" />
            <mxPoint x="789" y="405" as="targetPoint" />
          </mxGeometry>
        </mxCell>
        <mxCell id="pU5CVLxnvkpslBLuYrHG-153" value="1" style="edgeLabel;html=1;align=center;verticalAlign=middle;resizable=0;points=[];" parent="pU5CVLxnvkpslBLuYrHG-150" vertex="1" connectable="0">
          <mxGeometry x="0.8122" y="-1" relative="1" as="geometry">
            <mxPoint as="offset" />
          </mxGeometry>
        </mxCell>
        <mxCell id="pU5CVLxnvkpslBLuYrHG-151" value="" style="endArrow=none;html=1;entryX=1;entryY=1;entryDx=0;entryDy=0;exitX=0;exitY=0;exitDx=0;exitDy=0;" parent="1" source="pU5CVLxnvkpslBLuYrHG-149" target="pU5CVLxnvkpslBLuYrHG-5" edge="1">
          <mxGeometry width="50" height="50" relative="1" as="geometry">
            <mxPoint x="722" y="473" as="sourcePoint" />
            <mxPoint x="889" y="564" as="targetPoint" />
          </mxGeometry>
        </mxCell>
        <mxCell id="pU5CVLxnvkpslBLuYrHG-152" value="1:n" style="edgeLabel;html=1;align=center;verticalAlign=middle;resizable=0;points=[];" parent="pU5CVLxnvkpslBLuYrHG-151" vertex="1" connectable="0">
          <mxGeometry x="0.8328" relative="1" as="geometry">
            <mxPoint as="offset" />
          </mxGeometry>
        </mxCell>
        <mxCell id="pU5CVLxnvkpslBLuYrHG-154" value="Instructs" style="rhombus;whiteSpace=wrap;html=1;" parent="1" vertex="1">
          <mxGeometry x="385" y="551.5" width="80" height="80" as="geometry" />
        </mxCell>
        <mxCell id="pU5CVLxnvkpslBLuYrHG-155" value="" style="endArrow=none;html=1;exitX=1;exitY=0.5;exitDx=0;exitDy=0;entryX=0;entryY=0.5;entryDx=0;entryDy=0;" parent="1" source="pU5CVLxnvkpslBLuYrHG-154" target="pU5CVLxnvkpslBLuYrHG-73" edge="1">
          <mxGeometry width="50" height="50" relative="1" as="geometry">
            <mxPoint x="488" y="606" as="sourcePoint" />
            <mxPoint x="538" y="556" as="targetPoint" />
          </mxGeometry>
        </mxCell>
        <mxCell id="pU5CVLxnvkpslBLuYrHG-156" value="0:n" style="edgeLabel;html=1;align=center;verticalAlign=middle;resizable=0;points=[];" parent="pU5CVLxnvkpslBLuYrHG-155" vertex="1" connectable="0">
          <mxGeometry x="0.8039" relative="1" as="geometry">
            <mxPoint as="offset" />
          </mxGeometry>
        </mxCell>
        <mxCell id="pU5CVLxnvkpslBLuYrHG-157" value="" style="endArrow=none;html=1;exitX=0;exitY=0.5;exitDx=0;exitDy=0;entryX=1;entryY=0.5;entryDx=0;entryDy=0;" parent="1" source="pU5CVLxnvkpslBLuYrHG-154" target="pU5CVLxnvkpslBLuYrHG-40" edge="1">
          <mxGeometry width="50" height="50" relative="1" as="geometry">
            <mxPoint x="488" y="606" as="sourcePoint" />
            <mxPoint x="538" y="556" as="targetPoint" />
          </mxGeometry>
        </mxCell>
        <mxCell id="pU5CVLxnvkpslBLuYrHG-158" value="0:n" style="edgeLabel;html=1;align=center;verticalAlign=middle;resizable=0;points=[];" parent="pU5CVLxnvkpslBLuYrHG-157" vertex="1" connectable="0">
          <mxGeometry x="0.8166" relative="1" as="geometry">
            <mxPoint as="offset" />
          </mxGeometry>
        </mxCell>
        <mxCell id="pU5CVLxnvkpslBLuYrHG-170" value="Used_In" style="rhombus;whiteSpace=wrap;html=1;" parent="1" vertex="1">
          <mxGeometry x="611" y="679" width="80" height="80" as="geometry" />
        </mxCell>
        <mxCell id="pU5CVLxnvkpslBLuYrHG-171" value="" style="endArrow=none;html=1;entryX=1;entryY=1;entryDx=0;entryDy=0;exitX=0.5;exitY=0;exitDx=0;exitDy=0;" parent="1" source="pU5CVLxnvkpslBLuYrHG-120" target="pU5CVLxnvkpslBLuYrHG-170" edge="1">
          <mxGeometry width="50" height="50" relative="1" as="geometry">
            <mxPoint x="434" y="588" as="sourcePoint" />
            <mxPoint x="484" y="538" as="targetPoint" />
          </mxGeometry>
        </mxCell>
        <mxCell id="pU5CVLxnvkpslBLuYrHG-174" value="1" style="edgeLabel;html=1;align=center;verticalAlign=middle;resizable=0;points=[];" parent="pU5CVLxnvkpslBLuYrHG-171" vertex="1" connectable="0">
          <mxGeometry x="-0.8525" relative="1" as="geometry">
            <mxPoint as="offset" />
          </mxGeometry>
        </mxCell>
        <mxCell id="pU5CVLxnvkpslBLuYrHG-172" value="" style="endArrow=none;html=1;entryX=0;entryY=0;entryDx=0;entryDy=0;exitX=0.5;exitY=1;exitDx=0;exitDy=0;" parent="1" source="pU5CVLxnvkpslBLuYrHG-5" target="pU5CVLxnvkpslBLuYrHG-170" edge="1">
          <mxGeometry width="50" height="50" relative="1" as="geometry">
            <mxPoint x="426" y="340" as="sourcePoint" />
            <mxPoint x="484" y="538" as="targetPoint" />
          </mxGeometry>
        </mxCell>
        <mxCell id="pU5CVLxnvkpslBLuYrHG-173" value="0:n" style="edgeLabel;html=1;align=center;verticalAlign=middle;resizable=0;points=[];" parent="pU5CVLxnvkpslBLuYrHG-172" vertex="1" connectable="0">
          <mxGeometry x="-0.7694" y="1" relative="1" as="geometry">
            <mxPoint y="23" as="offset" />
          </mxGeometry>
        </mxCell>
        <mxCell id="Yg7qXJUgdfBUijy8s-41-1" value="User" style="rounded=1;whiteSpace=wrap;html=1;" parent="1" vertex="1">
          <mxGeometry x="218" y="786" width="120" height="60" as="geometry" />
        </mxCell>
        <mxCell id="Yg7qXJUgdfBUijy8s-41-2" value="ISA" style="triangle;whiteSpace=wrap;html=1;direction=south;" parent="1" vertex="1">
          <mxGeometry x="238" y="700" width="80" height="60" as="geometry" />
        </mxCell>
        <mxCell id="Yg7qXJUgdfBUijy8s-41-3" value="" style="endArrow=none;html=1;exitX=0.5;exitY=0;exitDx=0;exitDy=0;entryX=1;entryY=0.5;entryDx=0;entryDy=0;" parent="1" source="Yg7qXJUgdfBUijy8s-41-1" target="Yg7qXJUgdfBUijy8s-41-2" edge="1">
          <mxGeometry width="50" height="50" relative="1" as="geometry">
            <mxPoint x="214" y="514" as="sourcePoint" />
            <mxPoint x="316" y="763" as="targetPoint" />
          </mxGeometry>
        </mxCell>
        <mxCell id="Yg7qXJUgdfBUijy8s-41-5" value="" style="endArrow=none;html=1;exitX=0;exitY=0.25;exitDx=0;exitDy=0;entryX=0.5;entryY=1;entryDx=0;entryDy=0;rounded=0;" parent="1" source="Yg7qXJUgdfBUijy8s-41-2" target="pU5CVLxnvkpslBLuYrHG-73" edge="1">
          <mxGeometry width="50" height="50" relative="1" as="geometry">
            <mxPoint x="361" y="752" as="sourcePoint" />
            <mxPoint x="411" y="702" as="targetPoint" />
            <Array as="points">
              <mxPoint x="298" y="658" />
              <mxPoint x="939" y="658" />
            </Array>
          </mxGeometry>
        </mxCell>
        <mxCell id="Yg7qXJUgdfBUijy8s-41-6" value="" style="endArrow=none;html=1;exitX=0;exitY=0.75;exitDx=0;exitDy=0;entryX=0.75;entryY=1;entryDx=0;entryDy=0;rounded=0;" parent="1" source="Yg7qXJUgdfBUijy8s-41-2" target="pU5CVLxnvkpslBLuYrHG-40" edge="1">
          <mxGeometry width="50" height="50" relative="1" as="geometry">
            <mxPoint x="482" y="588" as="sourcePoint" />
            <mxPoint x="532" y="538" as="targetPoint" />
            <Array as="points">
              <mxPoint x="258" y="655" />
              <mxPoint x="-31" y="655" />
            </Array>
          </mxGeometry>
        </mxCell>
        <mxCell id="Yg7qXJUgdfBUijy8s-41-7" value="Created" style="rhombus;whiteSpace=wrap;html=1;" parent="1" vertex="1">
          <mxGeometry x="485" y="778.5" width="80" height="80" as="geometry" />
        </mxCell>
        <mxCell id="Yg7qXJUgdfBUijy8s-41-8" value="" style="endArrow=none;html=1;exitX=1;exitY=0.5;exitDx=0;exitDy=0;entryX=0;entryY=0.5;entryDx=0;entryDy=0;" parent="1" source="Yg7qXJUgdfBUijy8s-41-1" target="Yg7qXJUgdfBUijy8s-41-7" edge="1">
          <mxGeometry width="50" height="50" relative="1" as="geometry">
            <mxPoint x="482" y="588" as="sourcePoint" />
            <mxPoint x="532" y="538" as="targetPoint" />
          </mxGeometry>
        </mxCell>
        <mxCell id="Yg7qXJUgdfBUijy8s-41-10" value="0:1" style="edgeLabel;html=1;align=center;verticalAlign=middle;resizable=0;points=[];" parent="Yg7qXJUgdfBUijy8s-41-8" vertex="1" connectable="0">
          <mxGeometry x="-0.7619" y="3" relative="1" as="geometry">
            <mxPoint as="offset" />
          </mxGeometry>
        </mxCell>
        <mxCell id="Yg7qXJUgdfBUijy8s-41-9" value="" style="endArrow=none;html=1;exitX=1;exitY=0.5;exitDx=0;exitDy=0;entryX=0;entryY=0.5;entryDx=0;entryDy=0;" parent="1" source="Yg7qXJUgdfBUijy8s-41-7" target="pU5CVLxnvkpslBLuYrHG-120" edge="1">
          <mxGeometry width="50" height="50" relative="1" as="geometry">
            <mxPoint x="482" y="588" as="sourcePoint" />
            <mxPoint x="532" y="538" as="targetPoint" />
          </mxGeometry>
        </mxCell>
        <mxCell id="Yg7qXJUgdfBUijy8s-41-11" value="0:n" style="edgeLabel;html=1;align=center;verticalAlign=middle;resizable=0;points=[];" parent="Yg7qXJUgdfBUijy8s-41-9" vertex="1" connectable="0">
          <mxGeometry x="0.8907" y="-2" relative="1" as="geometry">
            <mxPoint as="offset" />
          </mxGeometry>
        </mxCell>
        <mxCell id="AUu0SCVgBB6AT_T015cy-1" value="week" style="ellipse;whiteSpace=wrap;html=1;" parent="1" vertex="1">
          <mxGeometry x="405" y="1025" width="99" height="47" as="geometry" />
        </mxCell>
        <mxCell id="AUu0SCVgBB6AT_T015cy-2" value="demand" style="ellipse;whiteSpace=wrap;html=1;" parent="1" vertex="1">
          <mxGeometry x="545" y="1024" width="102" height="49" as="geometry" />
        </mxCell>
        <mxCell id="AUu0SCVgBB6AT_T015cy-3" value="" style="endArrow=classic;html=1;exitX=0.5;exitY=0;exitDx=0;exitDy=0;entryX=0.5;entryY=1;entryDx=0;entryDy=0;" parent="1" source="AUu0SCVgBB6AT_T015cy-1" target="AUu0SCVgBB6AT_T015cy-5" edge="1">
          <mxGeometry width="50" height="50" relative="1" as="geometry">
            <mxPoint x="495" y="954" as="sourcePoint" />
            <mxPoint x="521" y="965.9999999999998" as="targetPoint" />
          </mxGeometry>
        </mxCell>
        <mxCell id="AUu0SCVgBB6AT_T015cy-4" value="" style="endArrow=classic;html=1;exitX=0.5;exitY=0;exitDx=0;exitDy=0;entryX=0.5;entryY=1;entryDx=0;entryDy=0;" parent="1" source="AUu0SCVgBB6AT_T015cy-2" target="AUu0SCVgBB6AT_T015cy-5" edge="1">
          <mxGeometry width="50" height="50" relative="1" as="geometry">
            <mxPoint x="495" y="954" as="sourcePoint" />
            <mxPoint x="521" y="965.9999999999998" as="targetPoint" />
          </mxGeometry>
        </mxCell>
        <mxCell id="AUu0SCVgBB6AT_T015cy-5" value="Demand" style="rounded=1;whiteSpace=wrap;html=1;" parent="1" vertex="1">
          <mxGeometry x="461" y="904" width="120" height="60" as="geometry" />
        </mxCell>
        <mxCell id="AUu0SCVgBB6AT_T015cy-8" value="Belongs_To" style="rhombus;whiteSpace=wrap;html=1;" parent="1" vertex="1">
          <mxGeometry x="644" y="894" width="80" height="80" as="geometry" />
        </mxCell>
        <mxCell id="AUu0SCVgBB6AT_T015cy-10" value="" style="endArrow=none;html=1;exitX=0;exitY=0.5;exitDx=0;exitDy=0;entryX=1;entryY=0.5;entryDx=0;entryDy=0;" parent="1" source="AUu0SCVgBB6AT_T015cy-8" target="AUu0SCVgBB6AT_T015cy-5" edge="1">
          <mxGeometry width="50" height="50" relative="1" as="geometry">
            <mxPoint x="649" y="815" as="sourcePoint" />
            <mxPoint x="699" y="765" as="targetPoint" />
          </mxGeometry>
        </mxCell>
        <mxCell id="AUu0SCVgBB6AT_T015cy-14" value="1:n" style="edgeLabel;html=1;align=center;verticalAlign=middle;resizable=0;points=[];" parent="AUu0SCVgBB6AT_T015cy-10" vertex="1" connectable="0">
          <mxGeometry x="0.8293" y="1" relative="1" as="geometry">
            <mxPoint as="offset" />
          </mxGeometry>
        </mxCell>
        <mxCell id="AUu0SCVgBB6AT_T015cy-11" value="" style="endArrow=none;html=1;exitX=1;exitY=0;exitDx=0;exitDy=0;entryX=0;entryY=1;entryDx=0;entryDy=0;" parent="1" source="AUu0SCVgBB6AT_T015cy-8" target="pU5CVLxnvkpslBLuYrHG-120" edge="1">
          <mxGeometry width="50" height="50" relative="1" as="geometry">
            <mxPoint x="649" y="815" as="sourcePoint" />
            <mxPoint x="699" y="765" as="targetPoint" />
          </mxGeometry>
        </mxCell>
        <mxCell id="AUu0SCVgBB6AT_T015cy-15" value="1" style="edgeLabel;html=1;align=center;verticalAlign=middle;resizable=0;points=[];" parent="AUu0SCVgBB6AT_T015cy-11" vertex="1" connectable="0">
          <mxGeometry x="0.8148" y="-1" relative="1" as="geometry">
            <mxPoint as="offset" />
          </mxGeometry>
        </mxCell>
        <mxCell id="diRsUvOX9jC2it2uEBxF-1" value="p_id" style="ellipse;whiteSpace=wrap;html=1;" parent="1" vertex="1">
          <mxGeometry x="-319" y="883" width="99" height="47" as="geometry" />
        </mxCell>
        <mxCell id="diRsUvOX9jC2it2uEBxF-2" value="" style="endArrow=classic;html=1;exitX=1;exitY=0.5;exitDx=0;exitDy=0;entryX=0;entryY=0.5;entryDx=0;entryDy=0;" parent="1" source="diRsUvOX9jC2it2uEBxF-1" target="diRsUvOX9jC2it2uEBxF-9" edge="1">
          <mxGeometry width="50" height="50" relative="1" as="geometry">
            <mxPoint x="-393" y="1109" as="sourcePoint" />
            <mxPoint x="-452" y="881" as="targetPoint" />
          </mxGeometry>
        </mxCell>
        <mxCell id="diRsUvOX9jC2it2uEBxF-3" value="order_request" style="ellipse;whiteSpace=wrap;html=1;" parent="1" vertex="1">
          <mxGeometry x="-176" y="1024" width="99" height="47" as="geometry" />
        </mxCell>
        <mxCell id="diRsUvOX9jC2it2uEBxF-4" value="week" style="ellipse;whiteSpace=wrap;html=1;" parent="1" vertex="1">
          <mxGeometry x="-36" y="1023" width="102" height="49" as="geometry" />
        </mxCell>
        <mxCell id="diRsUvOX9jC2it2uEBxF-5" value="inventory" style="ellipse;whiteSpace=wrap;html=1;" parent="1" vertex="1">
          <mxGeometry x="-288" y="971.5" width="104" height="46" as="geometry" />
        </mxCell>
        <mxCell id="diRsUvOX9jC2it2uEBxF-6" value="" style="endArrow=classic;html=1;exitX=0.5;exitY=0;exitDx=0;exitDy=0;entryX=0.5;entryY=1;entryDx=0;entryDy=0;" parent="1" source="diRsUvOX9jC2it2uEBxF-3" target="diRsUvOX9jC2it2uEBxF-9" edge="1">
          <mxGeometry width="50" height="50" relative="1" as="geometry">
            <mxPoint x="-86" y="953" as="sourcePoint" />
            <mxPoint x="-60" y="964.9999999999998" as="targetPoint" />
          </mxGeometry>
        </mxCell>
        <mxCell id="diRsUvOX9jC2it2uEBxF-7" value="" style="endArrow=classic;html=1;exitX=1;exitY=0;exitDx=0;exitDy=0;entryX=0;entryY=0.5;entryDx=0;entryDy=0;" parent="1" source="diRsUvOX9jC2it2uEBxF-5" target="diRsUvOX9jC2it2uEBxF-9" edge="1">
          <mxGeometry width="50" height="50" relative="1" as="geometry">
            <mxPoint x="-389" y="912" as="sourcePoint" />
            <mxPoint x="-363" y="922" as="targetPoint" />
          </mxGeometry>
        </mxCell>
        <mxCell id="diRsUvOX9jC2it2uEBxF-8" value="" style="endArrow=classic;html=1;exitX=0.5;exitY=0;exitDx=0;exitDy=0;entryX=0.5;entryY=1;entryDx=0;entryDy=0;" parent="1" source="diRsUvOX9jC2it2uEBxF-4" target="diRsUvOX9jC2it2uEBxF-9" edge="1">
          <mxGeometry width="50" height="50" relative="1" as="geometry">
            <mxPoint x="-86" y="953" as="sourcePoint" />
            <mxPoint x="-60" y="964.9999999999998" as="targetPoint" />
          </mxGeometry>
        </mxCell>
        <mxCell id="diRsUvOX9jC2it2uEBxF-9" value="Round History" style="rounded=1;whiteSpace=wrap;html=1;" parent="1" vertex="1">
          <mxGeometry x="-120" y="903" width="120" height="60" as="geometry" />
        </mxCell>
        <mxCell id="diRsUvOX9jC2it2uEBxF-10" value="shipped_out" style="ellipse;whiteSpace=wrap;html=1;" parent="1" vertex="1">
          <mxGeometry x="-242" y="811" width="99" height="47" as="geometry" />
        </mxCell>
        <mxCell id="diRsUvOX9jC2it2uEBxF-11" value="" style="endArrow=classic;html=1;exitX=1;exitY=1;exitDx=0;exitDy=0;entryX=0.5;entryY=0;entryDx=0;entryDy=0;" parent="1" source="diRsUvOX9jC2it2uEBxF-10" target="diRsUvOX9jC2it2uEBxF-9" edge="1">
          <mxGeometry width="50" height="50" relative="1" as="geometry">
            <mxPoint x="-110" y="955" as="sourcePoint" />
            <mxPoint x="-229" y="817" as="targetPoint" />
          </mxGeometry>
        </mxCell>
        <mxCell id="diRsUvOX9jC2it2uEBxF-12" value="backorder" style="ellipse;whiteSpace=wrap;html=1;" parent="1" vertex="1">
          <mxGeometry x="79" y="979" width="99" height="47" as="geometry" />
        </mxCell>
        <mxCell id="diRsUvOX9jC2it2uEBxF-13" value="" style="endArrow=classic;html=1;exitX=0;exitY=0;exitDx=0;exitDy=0;entryX=1;entryY=0.5;entryDx=0;entryDy=0;" parent="1" source="diRsUvOX9jC2it2uEBxF-12" target="diRsUvOX9jC2it2uEBxF-9" edge="1">
          <mxGeometry width="50" height="50" relative="1" as="geometry">
            <mxPoint x="67" y="1167" as="sourcePoint" />
            <mxPoint x="6" y="931.5" as="targetPoint" />
          </mxGeometry>
        </mxCell>
        <mxCell id="diRsUvOX9jC2it2uEBxF-14" value="" style="endArrow=none;html=1;entryX=0.5;entryY=1;entryDx=0;entryDy=0;exitX=0.5;exitY=0;exitDx=0;exitDy=0;" parent="1" source="diRsUvOX9jC2it2uEBxF-15" target="pU5CVLxnvkpslBLuYrHG-40" edge="1">
          <mxGeometry width="50" height="50" relative="1" as="geometry">
            <mxPoint x="-195.5" y="729" as="sourcePoint" />
            <mxPoint x="-145.5" y="679" as="targetPoint" />
          </mxGeometry>
        </mxCell>
        <mxCell id="diRsUvOX9jC2it2uEBxF-16" value="1" style="edgeLabel;html=1;align=center;verticalAlign=middle;resizable=0;points=[];" parent="diRsUvOX9jC2it2uEBxF-14" vertex="1" connectable="0">
          <mxGeometry x="0.6096" relative="1" as="geometry">
            <mxPoint as="offset" />
          </mxGeometry>
        </mxCell>
        <mxCell id="diRsUvOX9jC2it2uEBxF-15" value="Has" style="rhombus;whiteSpace=wrap;html=1;" parent="1" vertex="1">
          <mxGeometry x="-100.5" y="718" width="80" height="80" as="geometry" />
        </mxCell>
        <mxCell id="diRsUvOX9jC2it2uEBxF-17" value="" style="endArrow=none;html=1;entryX=0.5;entryY=1;entryDx=0;entryDy=0;exitX=0.5;exitY=0;exitDx=0;exitDy=0;" parent="1" source="diRsUvOX9jC2it2uEBxF-9" target="diRsUvOX9jC2it2uEBxF-15" edge="1">
          <mxGeometry width="50" height="50" relative="1" as="geometry">
            <mxPoint x="-94" y="860.5" as="sourcePoint" />
            <mxPoint x="-44" y="810.5" as="targetPoint" />
          </mxGeometry>
        </mxCell>
        <mxCell id="diRsUvOX9jC2it2uEBxF-18" value="0:n" style="edgeLabel;html=1;align=center;verticalAlign=middle;resizable=0;points=[];" parent="diRsUvOX9jC2it2uEBxF-17" vertex="1" connectable="0">
          <mxGeometry x="-0.581" y="-1" relative="1" as="geometry">
            <mxPoint y="-1" as="offset" />
          </mxGeometry>
        </mxCell>
      </root>
    </mxGraphModel>
  </diagram>
</mxfile>
